<svg width="32" height="32" viewBox="0 0 32 32" fill="none" xmlns="http://www.w3.org/2000/svg">
<path d="M21.0705 21.0729L28.1412 28.1435M21.0705 21.0729C20.1456 22.0177 19.0425 22.7684 17.8251 23.2841C16.6076 23.7998 15.3 24.069 13.9778 24.076C12.6557 24.0831 11.3452 23.8278 10.1223 23.3251C8.89946 22.8224 7.78842 22.0822 6.85349 21.1472C5.91857 20.2123 5.17833 19.1013 4.67561 17.8784C4.17289 16.6555 3.91766 15.3451 3.9247 14.0229C3.93174 12.7007 4.20091 11.3931 4.71663 10.1757C5.23235 8.9582 5.98438 7.8551 6.92921 6.93019C8.81126 5.08781 11.3441 4.06229 13.9778 4.07631C16.6115 4.09034 19.1333 5.14279 20.9956 7.0051C22.8579 8.86742 23.9104 11.3892 23.9244 14.0229C23.9384 16.6566 22.9129 19.1908 21.0705 21.0729Z" stroke="black" stroke-width="2.66667" stroke-linecap="square"/>
</svg>
